# xmcd
#
# Track frame offsets:
#	150
#	13987
#	26656
#	41036
#	48880
#	61252
#	76504
#	89829
#	101471
#	120050
#	137410
#	150702
#	160801
#	175956
#	185683
#	203200
#	222067
#
# Disc length: 3209 seconds
#
# Revision: 0
# Processed by: cddbd v1.4PL0 Copyright (c) Steve Scherf et al.
# Submitted via: audiograbber 1.80
#
DISCID=d80c8711
DTITLE=Do Szafy Graj¹cej ... - ... 2 Grosiki Wrzuæ
DYEAR=1900
DGENRE=
TTITLE0=Komu Piosenkê
TTITLE1=Bal Arlekina
TTITLE2=Volare
TTITLE3=Deszcz
TTITLE4=Wakacje z Blondynk¹
TTITLE5=Hipolit
TTITLE6=Jedziemy Autostopem
TTITLE7=Lucyna
TTITLE8=Kochaæ
TTITLE9=Bo We Mnie Jest Sex
TTITLE10=Agatko Poca³uj
TTITLE11=O Mnie Sie Nie Martw
TTITLE12=Rudy Rydz
TTITLE13=Tylko Wróæ
TTITLE14=Maleñki Znak
TTITLE15=Parasolki
TTITLE16=¯ó³te Kalendarze
EXTD=
EXTT0=
EXTT1=
EXTT2=
EXTT3=
EXTT4=
EXTT5=
EXTT6=
EXTT7=
EXTT8=
EXTT9=
EXTT10=
EXTT11=
EXTT12=
EXTT13=
EXTT14=
EXTT15=
EXTT16=
PLAYORDER=
